HIERARCHY
ROOT Hips
{
	OFFSET 0.000000 0.000000 0.000000
	CHANNELS 6 Xposition Yposition Zposition Zrotation Yrotation Xrotation 
	JOINT LHipJoint
	{
		OFFSET 0.000000 0.000000 0.000000
		CHANNELS 3 Zrotation Yrotation Xrotation
		JOINT LeftUpLeg
		{
			OFFSET 1.363060 -1.794630 0.839290
			CHANNELS 3 Zrotation Yrotation Xrotation
			JOINT LeftLeg
			{
				OFFSET 2.448110 -6.726130 0.000000
				CHANNELS 3 Zrotation Yrotation Xrotation
				JOINT LeftFoot
				{
					OFFSET 2.562200 -7.039590 0.000000
					CHANNELS 3 Zrotation Yrotation Xrotation
					JOINT LeftToeBase
					{
						OFFSET 0.157640 -0.433110 2.322550
						CHANNELS 3 Zrotation Yrotation Xrotation
						End Site
						{
							OFFSET 0.000000 0.000000 0.000000
						}
					}
				}
			}
		}
	}
	JOINT RHipJoint
	{
		OFFSET 0.000000 0.000000 0.000000
		CHANNELS 3 Zrotation Yrotation Xrotation
		JOINT RightUpLeg
		{
			OFFSET -1.305520 -1.794630 0.839290
			CHANNELS 3 Zrotation Yrotation Xrotation
			JOINT RightLeg
			{
				OFFSET -2.542530 -6.985550 0.000000
				CHANNELS 3 Zrotation Yrotation Xrotation
				JOINT RightFoot
				{
					OFFSET -2.568260 -7.056230 0.000000
					CHANNELS 3 Zrotation Yrotation Xrotation
					JOINT RightToeBase
					{
						OFFSET -0.164730 -0.452590 2.363150
						CHANNELS 3 Zrotation Yrotation Xrotation
						End Site
						{
							OFFSET 0.000000 0.000000 0.000000
						}
					}
				}
			}
		}
	}
	JOINT LowerBack
	{
		OFFSET 0.000000 0.000000 0.000000
		CHANNELS 3 Zrotation Yrotation Xrotation
		JOINT Spine
		{
			OFFSET 0.028270 2.035590 -0.193380
			CHANNELS 3 Zrotation Yrotation Xrotation
			JOINT Spine1
			{
				OFFSET 0.056720 2.048850 -0.042750
				CHANNELS 3 Zrotation Yrotation Xrotation
				JOINT Neck
				{
					OFFSET 0.000000 0.000000 0.000000
					CHANNELS 3 Zrotation Yrotation Xrotation
					JOINT Neck1
					{
						OFFSET -0.054170 1.746240 0.172020
						CHANNELS 3 Zrotation Yrotation Xrotation
						JOINT Head
						{
							OFFSET 0.104070 1.761360 -0.123970
							CHANNELS 3 Zrotation Yrotation Xrotation
							End Site
							{
								OFFSET 0.000000 0.000000 0.000000
							}
						}
					}
				}
				JOINT LeftShoulder
				{
					OFFSET 0.000000 0.000000 0.000000
					CHANNELS 3 Zrotation Yrotation Xrotation
					JOINT LeftArm
					{
						OFFSET 3.362410 1.200890 -0.311210
						CHANNELS 3 Zrotation Yrotation Xrotation
						JOINT LeftForeArm
						{
							OFFSET 4.983000 -0.000000 -0.000000
							CHANNELS 3 Zrotation Yrotation Xrotation
							JOINT LeftHand
							{
								OFFSET 3.483560 -0.000000 -0.000000
								CHANNELS 3 Zrotation Yrotation Xrotation
								JOINT LeftFingerBase
								{
									OFFSET 0.000000 0.000000 0.000000
									CHANNELS 3 Zrotation Yrotation Xrotation
									JOINT LeftHandIndex1
									{
										OFFSET 0.715260 -0.000000 -0.000000
										CHANNELS 3 Zrotation Yrotation Xrotation
										End Site
										{
											OFFSET 0.000000 0.000000 0.000000
										}
									}
								}
								JOINT LThumb
								{
									OFFSET 0.000000 0.000000 0.000000
									CHANNELS 3 Zrotation Yrotation Xrotation
									End Site
									{
										OFFSET 0.000000 0.000000 0.000000
									}
								}
							}
						}
					}
				}
				JOINT RightShoulder
				{
					OFFSET 0.000000 0.000000 0.000000
					CHANNELS 3 Zrotation Yrotation Xrotation
					JOINT RightArm
					{
						OFFSET -3.136600 1.374050 -0.404650
						CHANNELS 3 Zrotation Yrotation Xrotation
						JOINT RightForeArm
						{
							OFFSET -5.241900 -0.000000 -0.000000
							CHANNELS 3 Zrotation Yrotation Xrotation
							JOINT RightHand
							{
								OFFSET -3.444170 -0.000000 -0.000000
								CHANNELS 3 Zrotation Yrotation Xrotation
								JOINT RightFingerBase
								{
									OFFSET 0.000000 0.000000 0.000000
									CHANNELS 3 Zrotation Yrotation Xrotation
									JOINT RightHandIndex1
									{
										OFFSET -0.622530 -0.000000 -0.000000
										CHANNELS 3 Zrotation Yrotation Xrotation
										End Site
										{
											OFFSET 0.000000 0.000000 0.000000
										}
									}
								}
								JOINT RThumb
								{
									OFFSET 0.000000 0.000000 0.000000
									CHANNELS 3 Zrotation Yrotation Xrotation
									End Site
									{
										OFFSET 0.000000 0.000000 0.000000
									}
								}
							}
						}
					}
				}
			}
		}
	}
}
MOTION
Frames: 11
Frame Time: 0.008333
0.696188 15.994167 2.612626 -95.288749 -70.364531 141.007337 -8.438531 -5.856449 -4.263916 -2.685114 9.591456 -77.750604 -1.594658 4.632408 54.012422 3.108844 9.541844 -23.317343 -2.371800 0.000000 -30.209800 6.991921 -0.821934 11.041496 4.425395 25.102330 -120.131716 10.379304 3.527051 -4.801237 0.175120 -4.104398 12.185783 -4.063000 0.000000 -77.085900 6.457066 -0.951509 1.337257 0.573755 -1.169073 -2.895858 -6.253608 -1.051643 -0.525432 10.035912 -14.646073 -7.654831 -1.270517 -0.065672 -0.487439 0.000000 0.000000 0.000000 13.607552 7.644764 0.234348 -60.919780 -0.084287 -3.096028 -178.791620 -61.397392 179.940754 6.590462 1.575838 0.065776 -0.207599 0.500910 -0.000000 0.000000 0.000000 0.000000 0.000000 0.000000 0.000000 -0.339018 -8.469378 0.209933 69.204931 -4.355492 15.082195 179.839544 73.288561 179.901627 -14.172120 4.761213 -0.668343 0.292562 -0.520347 0.000000 0.000000 0.000000 0.000000 0.000000 0.000000 0.000000 
0.698801 15.961755 2.616841 -95.442384 -70.103349 141.049066 -8.453568 -5.906588 -4.227903 -2.365014 9.720002 -77.946829 -1.528922 4.694583 54.664799 3.152608 9.697881 -23.689319 -2.474800 -0.000000 -30.058200 7.086472 -0.976520 10.793540 5.133124 25.430577 -119.937854 10.544593 2.444705 -1.596991 0.903429 -1.829851 14.424036 -3.113100 0.000000 -77.790800 6.457606 -0.871620 1.558135 0.573235 -1.073594 -2.869984 -6.221363 -0.957959 -0.621618 10.019900 -14.470075 -7.708030 -1.272091 -0.064338 -0.511011 0.000000 0.000000 0.000000 13.352179 7.690189 0.303797 -61.321006 0.011118 -3.106278 -178.793871 -61.428864 179.939997 6.664844 1.587262 0.067183 -0.208831 0.501328 -0.000000 0.000000 0.000000 0.000000 0.000000 0.000000 0.000000 -0.370501 -8.204801 0.257150 69.167280 -3.964001 15.185966 179.834480 73.403737 179.901228 -14.134727 4.850684 -0.678457 0.291854 -0.524921 0.000000 0.000000 0.000000 0.000000 0.000000 0.000000 0.000000 
0.700011 15.933217 2.622418 -95.382364 -69.865509 140.840633 -8.484270 -5.966396 -4.174854 -2.011116 9.815065 -78.056241 -1.460778 4.738425 55.242768 3.190226 9.834703 -24.030303 -2.569400 -0.000001 -29.907500 7.122529 -1.082005 10.493396 5.909025 25.594238 -119.304520 10.565522 1.521728 1.049014 1.544839 0.361026 16.526091 -2.039400 0.000000 -76.902700 6.488669 -0.815018 1.799509 0.583374 -1.002162 -2.835271 -6.181163 -0.888408 -0.715729 10.018513 -14.286725 -7.757846 -1.275813 -0.063223 -0.533855 0.000000 0.000000 0.000000 13.095294 7.736584 0.372430 -61.788469 0.120030 -3.115037 -178.802677 -61.492952 179.938962 6.767179 1.617295 0.069991 -0.210221 0.501448 -0.000000 0.000000 0.000000 0.000000 0.000000 0.000000 0.000000 -0.374251 -7.947472 0.302098 69.077212 -3.537423 15.318836 179.827042 73.549531 179.901132 -14.074167 4.951814 -0.688874 0.290814 -0.529233 0.000000 0.000000 0.000000 0.000000 0.000000 0.000000 0.000000 
0.699488 15.908816 2.628257 -95.145977 -69.662682 140.451968 -8.521286 -6.023308 -4.105277 -1.653630 9.856960 -78.114871 -1.393352 4.763930 55.733288 3.222697 9.953320 -24.327541 -2.652599 -0.000000 -29.764800 7.110592 -1.153726 10.179664 6.728441 25.639478 -118.314915 10.492890 0.802401 3.124302 2.036282 2.254031 18.185454 -1.000900 -0.000001 -75.003400 6.529256 -0.779975 2.025647 0.599436 -0.953666 -2.800123 -6.135318 -0.841969 -0.803039 10.036964 -14.105262 -7.805809 -1.280303 -0.062229 -0.555811 0.000000 0.000000 0.000000 12.852404 7.783343 0.437085 -62.309194 0.247065 -3.113450 -178.818615 -61.589109 179.937704 6.893005 1.663883 0.074201 -0.211634 0.501220 -0.000000 0.000000 0.000000 0.000000 0.000000 0.000000 0.000000 -0.347907 -7.707657 0.343646 68.951103 -3.087133 15.477685 179.817836 73.725252 179.901255 -14.003800 5.057839 -0.699290 0.289789 -0.533149 0.000000 0.000000 0.000000 0.000000 0.000000 0.000000 0.000000 
0.696819 15.888681 2.633313 -94.764081 -69.504674 139.945137 -8.557827 -6.067382 -4.018617 -1.318963 9.832744 -78.159228 -1.329467 4.772193 56.128099 3.250507 10.052292 -24.569724 -2.721100 -0.000000 -29.648199 7.068668 -1.208006 9.885490 7.563102 25.608310 -117.074231 10.370297 0.283767 4.693334 2.349059 3.628890 19.242626 -0.191900 0.000000 -72.864100 6.560788 -0.763992 2.204988 0.616864 -0.926304 -2.772292 -6.086389 -0.816918 -0.880011 10.077933 -13.933240 -7.853556 -1.284330 -0.061268 -0.576806 0.000000 0.000000 0.000000 12.635096 7.828531 0.495420 -62.865106 0.396337 -3.094184 -178.841369 -61.715105 179.936307 7.034866 1.723420 0.079411 -0.212920 0.500636 -0.000000 0.000000 0.000000 0.000000 0.000000 0.000000 0.000000 -0.291321 -7.492767 0.381291 68.807535 -2.630716 15.656450 179.807629 73.931458 179.901514 -13.935470 5.161511 -0.709202 0.289038 -0.536520 0.000000 0.000000 0.000000 0.000000 0.000000 0.000000 0.000000 
0.691618 15.872736 2.636678 -94.256595 -69.402502 139.358276 -8.589843 -6.090791 -3.913820 -1.030842 9.733866 -78.212880 -1.271519 4.764425 56.423496 3.273633 10.128350 -24.750074 -2.772300 -0.000000 -29.567600 7.017285 -1.260631 9.627759 8.405628 25.532306 -115.693226 10.226295 -0.076947 5.904828 2.484341 4.347601 19.652630 0.248800 0.000000 -71.137699 6.568138 -0.765367 2.319581 0.631574 -0.918766 -2.756392 -6.037138 -0.811933 -0.944405 10.141496 -13.779866 -7.903644 -1.286593 -0.060217 -0.597204 0.000000 0.000000 0.000000 12.450933 7.869114 0.546115 -63.434607 0.567785 -3.051484 -178.869789 -61.867446 179.934873 7.182921 1.790369 0.085421 -0.213919 0.499762 -0.000000 0.000000 0.000000 0.000000 0.000000 0.000000 0.000000 -0.208623 -7.311256 0.414908 68.666476 -2.183586 15.848483 179.797379 74.161813 179.901802 -13.881250 5.255891 -0.718610 0.288787 -0.539284 0.000000 0.000000 0.000000 0.000000 0.000000 0.000000 0.000000 
0.683773 15.860939 2.637596 -93.640803 -69.367694 138.713158 -8.614641 -6.087195 -3.790348 -0.811958 9.555517 -78.288953 -1.221764 4.742009 56.619314 3.291446 10.175830 -24.866225 -2.804400 0.000000 -29.528601 6.972901 -1.321988 9.410824 9.250304 25.424586 -114.266991 10.069921 -0.333398 6.928743 2.454015 4.364744 19.447446 0.269101 -0.000000 -70.170900 6.538542 -0.783234 2.361968 0.639933 -0.930277 -2.754781 -5.990240 -0.826215 -0.996019 10.224911 -13.650175 -7.957651 -1.286216 -0.058998 -0.617165 0.000000 0.000000 0.000000 12.303101 7.900033 0.588986 -63.992105 0.761933 -2.982832 -178.901917 -62.039276 179.933517 7.326484 1.859696 0.091731 -0.214512 0.498663 -0.000000 0.000000 0.000000 0.000000 0.000000 0.000000 0.000000 -0.106978 -7.166348 0.444560 68.548375 -1.766599 16.043543 179.788114 74.407727 179.902036 -13.848096 5.336681 -0.727212 0.289080 -0.541444 0.000000 0.000000 0.000000 0.000000 0.000000 0.000000 0.000000 
0.673608 15.853160 2.636212 -92.902671 -69.395760 137.987587 -8.634937 -6.061418 -3.650560 -0.656086 9.309494 -78.382535 -1.180391 4.706642 56.721361 3.302050 10.187377 -24.919292 -2.815701 -0.000000 -29.545700 6.938721 -1.398267 9.227639 10.092694 25.283026 -112.837207 9.896459 -0.523948 7.880174 2.266472 3.697022 18.720505 -0.109101 -0.000000 -70.027400 6.480553 -0.814620 2.344177 0.643173 -0.957689 -2.764581 -5.946476 -0.856452 -1.034026 10.322142 -13.560324 -8.020633 -1.281787 -0.057401 -0.638354 0.000000 0.000000 0.000000 12.189612 7.921547 0.623821 -64.526543 0.961607 -2.885562 -178.935799 -62.228562 179.932368 7.450858 1.921496 0.097440 -0.214389 0.497642 -0.000000 0.000000 0.000000 0.000000 0.000000 0.000000 0.000000 0.002450 -7.072638 0.471726 68.460250 -1.378735 16.239876 179.780307 74.661286 179.902118 -13.845134 5.393780 -0.734409 0.290094 -0.542896 0.000000 0.000000 0.000000 0.000000 0.000000 0.000000 0.000000 
0.661017 15.849094 2.631936 -92.053092 -69.497879 137.181599 -8.649335 -6.008510 -3.495888 -0.584450 8.995742 -78.487546 -1.149735 4.659839 56.734115 3.304479 10.156580 -24.915620 -2.806700 0.000000 -29.612000 6.921094 -1.490654 9.065863 10.933238 25.097041 -111.460043 9.699413 -0.695691 8.907848 1.940258 2.476162 17.569162 -0.777100 0.000000 -70.447500 6.384725 -0.860486 2.274579 0.638461 -1.001393 -2.784809 -5.908106 -0.903026 -1.061657 10.426864 -13.505080 -8.091778 -1.273665 -0.055467 -0.660482 0.000000 0.000000 0.000000 12.107462 7.926635 0.652603 -65.009378 1.170305 -2.762774 -178.968312 -62.420372 179.931522 7.546024 1.972799 0.102148 -0.213565 0.496729 -0.000000 0.000000 0.000000 0.000000 0.000000 0.000000 0.000000 0.110748 -7.021858 0.496522 68.419791 -1.046272 16.422639 179.774798 74.908249 179.902027 -13.868438 5.430398 -0.740402 0.291551 -0.543827 0.000000 0.000000 0.000000 0.000000 0.000000 0.000000 0.000000 
0.646448 15.848489 2.624993 -91.087036 -69.670447 136.269713 -8.660193 -5.932751 -3.330591 -0.594068 8.627471 -78.585804 -1.130295 4.603519 56.667066 3.297204 10.077925 -24.864365 -2.778600 0.000000 -29.721301 6.916283 -1.595420 8.907716 11.767988 24.846720 -110.141815 9.469183 -0.875590 10.082302 1.495364 0.856135 16.140761 -1.607000 0.000000 -71.102400 6.257198 -0.919453 2.174671 0.626573 -1.059236 -2.810780 -5.875558 -0.963651 -1.081137 10.532199 -13.488015 -8.172888 -1.261677 -0.053128 -0.684377 0.000000 0.000000 0.000000 12.051816 7.913931 0.676861 -65.428678 1.377662 -2.617231 -178.997193 -62.607759 179.931077 7.600637 2.007595 0.105255 -0.211880 0.496117 -0.000000 0.000000 0.000000 0.000000 0.000000 0.000000 0.000000 0.208054 -7.014808 0.520109 68.430311 -0.774307 16.585279 179.771761 75.135466 179.901746 -13.914757 5.445041 -0.744792 0.293303 -0.544330 0.000000 0.000000 0.000000 0.000000 0.000000 0.000000 0.000000 
0.630114 15.850900 2.615602 -90.002343 -69.907782 135.234987 -8.670040 -5.838300 -3.158622 -0.681292 8.219067 -78.659522 -1.122585 4.539770 56.529650 3.279234 9.948318 -24.775410 -2.733300 -0.000000 -29.870700 6.919834 -1.705105 8.736095 12.587793 24.509286 -108.874563 9.200465 -1.082308 11.434377 0.965498 -0.981311 14.607779 -2.471500 -0.000000 -71.648800 6.103131 -0.989817 2.064771 0.608082 -1.128746 -2.837924 -5.848970 -1.035735 -1.094689 10.631836 -13.508583 -8.264671 -1.246253 -0.050380 -0.710609 0.000000 0.000000 0.000000 12.016880 7.883814 0.698348 -65.774209 1.575361 -2.453856 -179.020340 -62.782092 179.931093 7.606935 2.021820 0.106260 -0.209288 0.495943 -0.000000 0.000000 0.000000 0.000000 0.000000 0.000000 0.000000 0.287890 -7.048250 0.543485 68.490715 -0.567335 16.721942 179.771068 75.331006 179.901294 -13.976607 5.440055 -0.747581 0.295133 -0.544554 0.000000 0.000000 0.000000 0.000000 0.000000 0.000000 0.000000 
